<svg width="96" height="101" viewBox="0 0 96 101" fill="none" xmlns="http://www.w3.org/2000/svg">
<path d="M43.2393 100.637C48.1818 100.637 52.8215 99.9193 57.1582 98.4844C61.5267 97.0494 65.4651 94.9451 68.9727 92.1709C72.4802 89.4286 75.4138 86.08 77.7734 82.126C80.133 78.2039 81.7595 73.7236 82.6523 68.6855H70.79C70.0885 72.0975 68.8602 75.0949 67.1064 77.6777C65.3845 80.2606 63.2801 82.4288 60.793 84.1826C58.3377 85.9682 55.6115 87.3074 52.6143 88.2002C49.6169 89.093 46.4917 89.54 43.2393 89.54C37.3082 89.54 31.9351 88.0413 27.1201 85.0439C22.3371 82.0466 18.5264 77.6302 15.6885 71.7949C12.8824 65.9595 11.4795 58.8004 11.4795 50.3184C11.4795 41.8366 12.8825 34.6781 15.6885 28.8428C18.5264 23.0074 22.337 18.5902 27.1201 15.5928C31.9351 12.5954 37.3083 11.0967 43.2393 11.0967C46.4917 11.0967 49.6169 11.5437 52.6143 12.4365C55.6115 13.3293 58.3377 14.6526 60.793 16.4062C63.2801 18.1919 65.3846 20.3763 67.1064 22.959C70.7075 28.3605 73.0974 35.335 73.8721 40.9199L57.5537 23.7578L46.6836 27.4463L78.6221 60.249L90.9424 56.0693L96.3262 10.6035L85.6367 14.2295L83.2676 35.5166L82.4609 30.8037L82.4336 30.8232C81.5057 26.2699 79.9543 22.1652 77.7734 18.5107C75.4139 14.5569 72.4801 11.1931 68.9727 8.41895C65.4651 5.67664 61.5267 3.58727 57.1582 2.15234C52.8215 0.717422 48.1818 7.62939e-06 43.2393 0C34.8848 0 27.4552 2.04147 20.9502 6.12305C14.4452 10.2046 9.32749 16.0079 5.59668 23.5332C1.86588 31.0586 2.10473e-05 39.9869 0 50.3184C0 60.6498 1.8659 69.5781 5.59668 77.1035C9.3275 84.6289 14.4452 90.4331 20.9502 94.5146C27.4551 98.5961 34.8849 100.637 43.2393 100.637Z" fill="black"/>
</svg>
