<?xml version="1.0" encoding="UTF-8"?>
<svg id="Calque_1" data-name="Calque 1" xmlns="http://www.w3.org/2000/svg" width="1.66cm" height="1.25cm" viewBox="0 0 47.13 35.39">
  <defs>
    <style>
      .cls-1 {
        fill: #ff95a5;
      }

      .cls-2 {
        fill: #c5c211;
      }
    </style>
  </defs>
  <rect class="cls-1" x="28.86" y="21.28" width="3.36" height="14" transform="translate(-8.48 13.79) rotate(-22.42)"/>
  <circle class="cls-2" cx="45.05" cy="32.19" r="2.08"/>
  <path class="cls-1" d="M42.28,24.7l3.39.41c-.32,2.59-2.1,4.33-4.6,4.83-9.22,1.85-11.03-11.87-3.11-13.5,3.1-.64,6.55.5,7.3,3.88l-3.28.83c-.44-2.14-3.33-2.81-4.6-1.04-1.35,1.88-.9,6.57,1.73,7.1,1.71.34,3-.85,3.17-2.51Z"/>
  <path class="cls-1" d="M34.65,0l2.38,2.56-1.72,1.53c.25.22.59-.02.88-.04,3.77-.28,5.78,3.75,4.36,6.96-1.74,3.93-7.48,7.39-11.08,3.64-1.39-1.45-1.25-2.58-.83-4.32.03-.13.18-.12-.07-.26l-5.41,4.64-2.29-2.61L34.65,0ZM30.81,8.3c-.95,1.44-.85,3.11.69,4.09,2.4,1.53,7.19-2.69,5.75-5.26-1.65-2.95-5.07-.93-6.44,1.16Z"/>
  <path class="cls-1" d="M19.37,24.59l6.09-8.65,3.59,1.04c-3.1,3.94-6.03,8.05-9.2,11.94-.88,1.08-1.58,2.06-2.94,2.6-1.82.74-3.92.03-5.47-1.02l1.52-2.34c1.56.99,2.98,1.13,3.58-.93l-.86-14.29,3.68,1.16.02,10.47Z"/>
  <polygon class="cls-1" points="16.85 8.06 9.48 20.75 9.46 20.99 14.02 23.67 12.6 26.21 0 18.93 1.59 16.34 5.9 18.85 6.31 18.89 13.69 6.37 13.84 6.33 16.85 8.06"/>
</svg>