<svg width="94" height="116" viewBox="0 0 94 116" fill="none" xmlns="http://www.w3.org/2000/svg">
<path d="M70.3636 21H81.6363V82.6364C81.6363 89 80.1363 94.6818 77.1363 99.6818C74.1666 104.652 69.9697 108.576 64.5454 111.455C59.1212 114.303 52.7576 115.727 45.4545 115.727C38.1515 115.727 31.7879 114.303 26.3636 111.455C20.9394 108.576 16.7273 104.652 13.7273 99.6818C10.7576 94.6818 9.27271 89 9.27271 82.6364V21H20.5454V81.7273C20.5454 86.2727 21.5454 90.3182 23.5454 93.8636C25.5454 97.3788 28.3939 100.152 32.0909 102.182C35.8182 104.182 40.2727 105.182 45.4545 105.182C50.6363 105.182 55.0909 104.182 58.8182 102.182C62.5454 100.152 65.3939 97.3788 67.3636 93.8636C69.3636 90.3182 70.3636 86.2727 70.3636 81.7273V21Z" fill="black"/>
<path d="M50.9091 37.2728H60.7273V93.2728H50.9091V37.2728ZM30 37.2728H39.8182V93.2728H30V37.2728Z" fill="black"/>
<path d="M93.0909 25.7273H0V15H93.0909V25.7273Z" fill="black"/>
<path d="M58 12.9757V23H32V13.0774C32 10.3975 32.5205 8.08223 33.5615 6.13164C34.5941 4.17257 36.0837 2.66298 38.0303 1.60288C39.9684 0.534292 42.2917 4.8451e-07 45 4.8451e-07C47.7083 4.8451e-07 50.0358 0.530053 51.9824 1.59016C53.9206 2.65026 55.4102 4.15137 56.4512 6.09347C57.4837 8.03558 58 10.3296 58 12.9757ZM52.0078 15.927V13.2301C52.0078 11.941 51.8005 10.8427 51.3857 9.93529C50.971 9.01936 50.2559 8.32393 49.2402 7.84901C48.2246 7.3656 46.8112 7.12389 45 7.12389C43.1888 7.12389 41.7754 7.36984 40.7598 7.86173C39.7441 8.34513 39.029 9.05752 38.6143 9.99889C38.1995 10.9318 37.9922 12.0767 37.9922 13.4336V15.927H52.0078Z" fill="black"/>
</svg>
