<svg width="94" height="116" viewBox="0 0 94 116" fill="none" xmlns="http://www.w3.org/2000/svg">
<g clip-path="url(#clip0_64_97)">
<path d="M70.399 21.2975H81.6363V82.7403C81.6363 89.084 80.1411 94.7479 77.1505 99.7322C74.1901 104.686 70.0063 108.598 64.5991 111.468C59.1919 114.308 52.8483 115.727 45.5682 115.727C38.2881 115.727 31.9444 114.308 26.5372 111.468C21.13 108.598 16.9311 104.686 13.9406 99.7322C10.9802 94.7479 9.5 89.084 9.5 82.7403L9.5 29.2724H20.7373V81.8341C20.7373 86.3653 21.7342 90.398 23.7279 93.9323C25.7216 97.4364 28.5612 100.2 32.2465 102.224C35.9621 104.218 40.4026 105.215 45.5682 105.215C50.7337 105.215 55.1743 104.218 58.8898 102.224C62.6054 100.2 65.4449 97.4364 67.4084 93.9323C69.4022 90.398 70.399 86.3653 70.399 81.8341V21.2975Z" fill="black"/>
<path d="M50.9091 37.2728H60.7273V93.2728H50.9091V37.2728ZM30 37.2728H39.8182V93.2728H30V37.2728Z" fill="black"/>
<path d="M91.9618 33.9015L3.53359e-05 19.4463L1.66577 8.84912L93.6275 23.3043L91.9618 33.9015Z" fill="black"/>
<path d="M59.2766 15.8556L57.72 25.7583L32.0354 21.721L33.5762 11.9188C33.9923 9.27136 34.866 7.06501 36.1973 5.29973C37.5215 3.52475 39.2275 2.26478 41.3151 1.51981C43.3957 0.76514 45.7737 0.598083 48.4492 1.01863C51.1247 1.43919 53.3416 2.32422 55.1 3.67374C56.85 5.02194 58.0884 6.73614 58.8152 8.81634C59.5337 10.8952 59.6875 13.2416 59.2766 15.8556ZM52.8988 17.8406L53.3176 15.1764C53.5178 13.903 53.4835 12.7858 53.2147 11.825C52.9472 10.8558 52.3487 10.0577 51.4192 9.43086C50.4909 8.79561 49.1322 8.33736 47.343 8.05612C45.5537 7.77488 44.1193 7.79836 43.0396 8.12658C41.9612 8.44641 41.1441 9.03911 40.5882 9.90467C40.0337 10.7618 39.6511 11.8607 39.4404 13.2011L39.0532 15.6643L52.8988 17.8406Z" fill="black"/>
</g>
<defs>
<clipPath id="clip0_64_97">
<rect width="93.0909" height="115.727" fill="white"/>
</clipPath>
</defs>
</svg>
